<?xml version="1.0" standalone="no"?>
<!DOCTYPE svg PUBLIC "-//W3C//DTD SVG 20010904//EN"
 "http://www.w3.org/TR/2001/REC-SVG-20010904/DTD/svg10.dtd">
<svg version="1.0" xmlns="http://www.w3.org/2000/svg"
 width="512.000000pt" height="512.000000pt" viewBox="0 0 512.000000 512.000000"
 preserveAspectRatio="xMidYMid meet">

<g transform="translate(0.000000,512.000000) scale(0.100000,-0.100000)"
fill="#BD93F9" stroke="none">
<path d="M775 4540 c-176 -24 -333 -136 -418 -298 -71 -134 -67 -35 -67 -1682
0 -1288 2 -1493 15 -1549 46 -195 201 -357 400 -418 57 -17 141 -18 1855 -18
1714 0 1798 1 1855 18 199 61 354 223 400 418 22 97 22 3001 0 3098 -46 192
-196 351 -395 417 -53 18 -135 19 -1820 20 -971 1 -1792 -2 -1825 -6z m3597
-290 c65 -24 128 -85 160 -155 23 -49 23 -58 26 -427 l3 -378 -2001 0 -2001 0
3 378 c3 369 3 378 26 428 30 66 95 129 158 154 48 19 96 19 1811 20 1736 0
1763 0 1815 -20z m186 -2207 l-3 -968 -23 -50 c-32 -70 -95 -131 -160 -155
-52 -20 -80 -20 -1812 -20 -1732 0 -1760 0 -1812 20 -65 24 -128 85 -160 155
l-23 50 -3 968 -3 967 2001 0 2001 0 -3 -967z"/>
<path d="M1033 3935 c-152 -76 -152 -288 1 -367 107 -56 248 2 286 118 19 56
8 136 -24 183 -34 49 -113 91 -171 91 -24 0 -62 -11 -92 -25z"/>
<path d="M1705 3942 c-185 -87 -155 -348 46 -393 98 -22 215 56 237 157 19 86
-16 173 -89 221 -52 34 -139 41 -194 15z"/>
<path d="M2364 3941 c-72 -33 -124 -115 -124 -197 0 -48 47 -132 91 -161 57
-38 111 -47 173 -29 109 32 172 138 146 245 -30 126 -169 195 -286 142z"/>
<path d="M2669 2530 c-47 -14 -69 -31 -88 -68 -17 -34 -312 -933 -326 -992 -4
-16 3 -41 17 -69 29 -56 82 -86 133 -77 36 7 88 45 105 77 6 10 80 231 165
491 101 308 155 488 155 515 0 79 -86 146 -161 123z"/>
<path d="M1450 2144 c-102 -41 -247 -100 -322 -131 -76 -30 -149 -63 -162 -74
-35 -28 -59 -85 -52 -125 13 -68 38 -83 384 -243 181 -83 339 -151 351 -151
101 0 165 118 111 206 -21 33 -50 49 -272 150 -48 21 -88 41 -88 44 0 3 66 32
148 64 157 63 202 90 233 140 24 38 20 92 -10 134 -20 29 -84 62 -119 62 -9 0
-100 -34 -202 -76z"/>
<path d="M3393 2200 c-67 -40 -87 -105 -54 -173 25 -51 42 -62 235 -140 70
-28 127 -56 125 -62 -2 -5 -67 -39 -144 -75 -182 -85 -183 -86 -205 -123 -53
-86 11 -197 113 -197 18 0 53 10 78 22 24 11 164 76 311 143 147 67 279 130
294 139 29 20 54 72 54 113 0 37 -33 89 -67 106 -97 50 -647 267 -675 267 -18
0 -47 -9 -65 -20z"/>
</g>
</svg>
